<mxfile host="65bd71144e">
    <diagram id="AnMDn8guutcr-QvqUZM-" name="Page-1">
        <mxGraphModel dx="905" dy="1667" grid="1" gridSize="10" guides="1" tooltips="1" connect="1" arrows="1" fold="1" page="0" pageScale="1" pageWidth="850" pageHeight="1100" math="0" shadow="0">
            <root>
                <mxCell id="0"/>
                <mxCell id="1" parent="0"/>
                <mxCell id="68" value="A SatoriÂ Node" style="swimlane;horizontal=0;" parent="1" vertex="1">
                    <mxGeometry x="140" y="-960" width="900" height="960" as="geometry">
                        <mxRectangle x="140" y="-960" width="30" height="100" as="alternateBounds"/>
                    </mxGeometry>
                </mxCell>
                <mxCell id="76" value="Engine" style="swimlane;horizontal=0;" parent="68" vertex="1">
                    <mxGeometry x="280" y="560" width="580" height="360" as="geometry">
                        <mxRectangle x="260" y="270" width="30" height="60" as="alternateBounds"/>
                    </mxGeometry>
                </mxCell>
                <mxCell id="21" value="&lt;font color=&quot;#ffff66&quot;&gt;predictions&lt;/font&gt;" style="edgeStyle=none;html=1;entryX=0.25;entryY=1;entryDx=0;entryDy=0;strokeColor=#FFFF66;exitX=0.75;exitY=0;exitDx=0;exitDy=0;" parent="76" source="5" target="3" edge="1">
                    <mxGeometry relative="1" as="geometry">
                        <mxPoint as="offset"/>
                    </mxGeometry>
                </mxCell>
                <mxCell id="74" value="&lt;font color=&quot;#ffccff&quot;&gt;current inputs&lt;/font&gt;" style="edgeStyle=none;html=1;entryX=0.75;entryY=1;entryDx=0;entryDy=0;fontColor=#CCFFCC;startArrow=none;startFill=0;endArrow=classic;endFill=1;strokeColor=#FFCCFF;exitX=0.75;exitY=0;exitDx=0;exitDy=0;" parent="76" source="5" target="2" edge="1">
                    <mxGeometry x="0.3333" relative="1" as="geometry">
                        <mxPoint as="offset"/>
                    </mxGeometry>
                </mxCell>
                <mxCell id="14" value="&lt;font color=&quot;#9999ff&quot;&gt;new inputs&lt;br&gt;(entire history)&lt;/font&gt;" style="edgeStyle=none;html=1;entryX=0.75;entryY=0;entryDx=0;entryDy=0;exitX=0.75;exitY=1;exitDx=0;exitDy=0;strokeColor=#9999FF;" parent="76" source="4" target="6" edge="1">
                    <mxGeometry relative="1" as="geometry">
                        <mxPoint as="offset"/>
                    </mxGeometry>
                </mxCell>
                <mxCell id="73" value="&lt;font color=&quot;#ffccff&quot;&gt;current inputs&lt;/font&gt;" style="edgeStyle=none;html=1;exitX=0.25;exitY=0;exitDx=0;exitDy=0;entryX=0.25;entryY=1;entryDx=0;entryDy=0;fontColor=#CCFFCC;startArrow=none;startFill=0;endArrow=classic;endFill=1;strokeColor=#FFCCFF;" parent="76" source="6" target="4" edge="1">
                    <mxGeometry x="0.3333" relative="1" as="geometry">
                        <mxPoint as="offset"/>
                    </mxGeometry>
                </mxCell>
                <mxCell id="11" value="&lt;font color=&quot;#ccffcc&quot;&gt;updates&lt;/font&gt;" style="endArrow=classic;html=1;exitX=0.25;exitY=1;exitDx=0;exitDy=0;entryX=0.25;entryY=0;entryDx=0;entryDy=0;strokeColor=#CCFFCC;" parent="76" source="2" target="5" edge="1">
                    <mxGeometry width="50" height="50" relative="1" as="geometry">
                        <mxPoint x="270" y="310" as="sourcePoint"/>
                        <mxPoint x="320" y="260" as="targetPoint"/>
                        <mxPoint as="offset"/>
                    </mxGeometry>
                </mxCell>
                <mxCell id="77" value="DataManager" style="swimlane;horizontal=0;" parent="76" vertex="1">
                    <mxGeometry x="60" y="20" width="500" height="120" as="geometry"/>
                </mxCell>
                <mxCell id="2" value="&lt;font color=&quot;#ccffcc&quot;&gt;Subscriber&lt;/font&gt;" style="rounded=1;whiteSpace=wrap;html=1;strokeColor=#CCFFCC;" parent="77" vertex="1">
                    <mxGeometry x="40" y="30" width="120" height="60" as="geometry"/>
                </mxCell>
                <mxCell id="3" value="&lt;font color=&quot;#ffff66&quot;&gt;Publisher&lt;/font&gt;" style="rounded=1;whiteSpace=wrap;html=1;strokeColor=#FFFF66;" parent="77" vertex="1">
                    <mxGeometry x="200" y="30" width="120" height="60" as="geometry"/>
                </mxCell>
                <mxCell id="4" value="&lt;font color=&quot;#9999ff&quot;&gt;Scholar&lt;/font&gt;" style="rounded=1;whiteSpace=wrap;html=1;strokeColor=#9999FF;" parent="77" vertex="1">
                    <mxGeometry x="360" y="30" width="120" height="60" as="geometry"/>
                </mxCell>
                <mxCell id="78" value="ModelManager" style="swimlane;horizontal=0;" parent="76" vertex="1">
                    <mxGeometry x="60" y="220" width="500" height="120" as="geometry"/>
                </mxCell>
                <mxCell id="5" value="Predictor" style="rounded=1;whiteSpace=wrap;html=1;" parent="78" vertex="1">
                    <mxGeometry x="40" y="30" width="120" height="60" as="geometry"/>
                </mxCell>
                <mxCell id="6" value="Explorer" style="rounded=1;whiteSpace=wrap;html=1;" parent="78" vertex="1">
                    <mxGeometry x="360" y="30" width="120" height="60" as="geometry"/>
                </mxCell>
                <mxCell id="13" value="&lt;font color=&quot;#ff6666&quot;&gt;models&lt;/font&gt;" style="edgeStyle=none;html=1;strokeColor=#FF6666;" parent="78" source="6" target="5" edge="1">
                    <mxGeometry relative="1" as="geometry"/>
                </mxCell>
                <mxCell id="82" value="Disk Interface" style="swimlane;horizontal=0;" parent="68" vertex="1">
                    <mxGeometry x="60" y="680" width="180" height="240" as="geometry"/>
                </mxCell>
                <mxCell id="83" value="Parquet Manager" style="rounded=1;whiteSpace=wrap;html=1;" parent="82" vertex="1">
                    <mxGeometry x="40" y="40" width="120" height="60" as="geometry"/>
                </mxCell>
                <mxCell id="86" value="Model Saver" style="rounded=1;whiteSpace=wrap;html=1;" parent="82" vertex="1">
                    <mxGeometry x="40" y="140" width="120" height="60" as="geometry"/>
                </mxCell>
                <mxCell id="85" style="edgeStyle=none;html=1;fontColor=#CCFFCC;strokeColor=#FFFF66;" parent="68" source="5" target="83" edge="1">
                    <mxGeometry relative="1" as="geometry"/>
                </mxCell>
                <mxCell id="87" value="" style="edgeStyle=none;html=1;strokeColor=#FF6666;exitX=0;exitY=0.5;exitDx=0;exitDy=0;entryX=1;entryY=0.5;entryDx=0;entryDy=0;" parent="68" source="5" target="86" edge="1">
                    <mxGeometry relative="1" as="geometry">
                        <mxPoint x="700" y="910" as="sourcePoint"/>
                        <mxPoint x="500" y="910" as="targetPoint"/>
                    </mxGeometry>
                </mxCell>
                <mxCell id="98" value="Subscribe Module" style="swimlane;horizontal=0;" vertex="1" parent="68">
                    <mxGeometry x="420" y="140" width="440" height="320" as="geometry"/>
                </mxCell>
                <mxCell id="101" value="Startup&#10;Process" style="swimlane;horizontal=0;startSize=40;" vertex="1" parent="68">
                    <mxGeometry x="420" y="40" width="440" height="80" as="geometry"/>
                </mxCell>
                <mxCell id="114" style="edgeStyle=none;html=1;" edge="1" parent="101" source="102" target="103">
                    <mxGeometry relative="1" as="geometry"/>
                </mxCell>
                <mxCell id="102" value="checkin" style="rounded=1;whiteSpace=wrap;html=1;" vertex="1" parent="101">
                    <mxGeometry x="80" y="25" width="80" height="30" as="geometry"/>
                </mxCell>
                <mxCell id="115" style="edgeStyle=none;html=1;" edge="1" parent="101" source="103" target="104">
                    <mxGeometry relative="1" as="geometry"/>
                </mxCell>
                <mxCell id="103" value="subscribe" style="rounded=1;whiteSpace=wrap;html=1;" vertex="1" parent="101">
                    <mxGeometry x="200" y="25" width="80" height="30" as="geometry"/>
                </mxCell>
                <mxCell id="104" value="ipfs" style="rounded=1;whiteSpace=wrap;html=1;" vertex="1" parent="101">
                    <mxGeometry x="320" y="25" width="80" height="30" as="geometry"/>
                </mxCell>
                <mxCell id="41" value="" style="shape=umlActor;verticalLabelPosition=bottom;verticalAlign=top;html=1;outlineConnect=0;" parent="1" vertex="1">
                    <mxGeometry x="380" y="-1100" width="40" height="80" as="geometry"/>
                </mxCell>
                <mxCell id="49" value="Blockchain" style="ellipse;shape=cloud;whiteSpace=wrap;html=1;" parent="1" vertex="1">
                    <mxGeometry x="220" y="-1100" width="120" height="80" as="geometry"/>
                </mxCell>
                <mxCell id="67" style="edgeStyle=none;html=1;startArrow=classic;startFill=1;endArrow=classic;endFill=1;" parent="1" source="58" target="41" edge="1">
                    <mxGeometry relative="1" as="geometry"/>
                </mxCell>
                <mxCell id="59" style="edgeStyle=none;html=1;startArrow=classic;startFill=1;endArrow=classic;endFill=1;exitX=0.5;exitY=0;exitDx=0;exitDy=0;" parent="1" source="66" target="49" edge="1">
                    <mxGeometry relative="1" as="geometry"/>
                </mxCell>
                <mxCell id="113" value="starts" style="edgeStyle=none;html=1;entryX=0;entryY=0.5;entryDx=0;entryDy=0;" edge="1" parent="1" source="80" target="101">
                    <mxGeometry relative="1" as="geometry">
                        <mxPoint x="550" y="-880" as="targetPoint"/>
                    </mxGeometry>
                </mxCell>
                <mxCell id="80" value="Flask Server" style="swimlane;horizontal=0;" parent="1" vertex="1">
                    <mxGeometry x="200" y="-920" width="280" height="80" as="geometry"/>
                </mxCell>
                <mxCell id="66" value="Wallet" style="rounded=1;whiteSpace=wrap;html=1;" parent="80" vertex="1">
                    <mxGeometry x="40" y="25" width="80" height="30" as="geometry"/>
                </mxCell>
                <mxCell id="58" value="UI" style="rounded=1;whiteSpace=wrap;html=1;" parent="80" vertex="1">
                    <mxGeometry x="160" y="25" width="80" height="30" as="geometry"/>
                </mxCell>
                <mxCell id="51" value="" style="edgeStyle=none;html=1;startArrow=none;startFill=0;endArrow=classic;endFill=1;entryX=0.25;entryY=0;entryDx=0;entryDy=0;strokeColor=#CCFFCC;" parent="1" target="2" edge="1">
                    <mxGeometry x="-0.6" relative="1" as="geometry">
                        <mxPoint x="560" y="-430" as="targetPoint"/>
                        <mxPoint as="offset"/>
                        <mxPoint x="450" y="-530" as="sourcePoint"/>
                    </mxGeometry>
                </mxCell>
                <mxCell id="84" value="&lt;font color=&quot;#ccffcc&quot;&gt;subscription updates&lt;/font&gt;" style="edgeStyle=none;html=1;strokeColor=#CCFFCC;" parent="1" target="83" edge="1">
                    <mxGeometry x="-0.8313" y="26" relative="1" as="geometry">
                        <mxPoint x="430" y="-540" as="sourcePoint"/>
                        <mxPoint as="offset"/>
                    </mxGeometry>
                </mxCell>
                <mxCell id="91" value="Local&lt;br&gt;Storage" style="shape=cylinder3;whiteSpace=wrap;html=1;boundedLbl=1;backgroundOutline=1;size=15;" parent="1" vertex="1">
                    <mxGeometry x="20" y="-200" width="60" height="80" as="geometry"/>
                </mxCell>
                <mxCell id="92" style="edgeStyle=none;html=1;startArrow=classic;startFill=1;" parent="1" source="82" target="91" edge="1">
                    <mxGeometry relative="1" as="geometry"/>
                </mxCell>
                <mxCell id="107" value="Satori&lt;br&gt;Server" style="ellipse;shape=cloud;whiteSpace=wrap;html=1;" vertex="1" parent="1">
                    <mxGeometry x="620" y="-1100" width="120" height="80" as="geometry"/>
                </mxCell>
                <mxCell id="108" style="edgeStyle=none;html=1;startArrow=classic;startFill=1;endArrow=classic;endFill=1;exitX=0.5;exitY=0;exitDx=0;exitDy=0;" edge="1" parent="1" target="107">
                    <mxGeometry relative="1" as="geometry">
                        <mxPoint x="680" y="-895" as="sourcePoint"/>
                    </mxGeometry>
                </mxCell>
                <mxCell id="109" value="Pubsub&lt;br&gt;Server" style="ellipse;shape=cloud;whiteSpace=wrap;html=1;" vertex="1" parent="1">
                    <mxGeometry x="740" y="-1100" width="120" height="80" as="geometry"/>
                </mxCell>
                <mxCell id="110" style="edgeStyle=none;html=1;startArrow=classic;startFill=1;endArrow=classic;endFill=1;exitX=0.5;exitY=0;exitDx=0;exitDy=0;" edge="1" parent="1" target="109">
                    <mxGeometry relative="1" as="geometry">
                        <mxPoint x="800" y="-895" as="sourcePoint"/>
                    </mxGeometry>
                </mxCell>
                <mxCell id="111" value="IPFS" style="ellipse;shape=cloud;whiteSpace=wrap;html=1;" vertex="1" parent="1">
                    <mxGeometry x="860" y="-1100" width="120" height="80" as="geometry"/>
                </mxCell>
                <mxCell id="112" style="edgeStyle=none;html=1;startArrow=classic;startFill=1;endArrow=classic;endFill=1;exitX=0.5;exitY=0;exitDx=0;exitDy=0;" edge="1" parent="1" target="111">
                    <mxGeometry relative="1" as="geometry">
                        <mxPoint x="920" y="-895" as="sourcePoint"/>
                    </mxGeometry>
                </mxCell>
                <mxCell id="81" value="NodeJs Server" style="swimlane;horizontal=0;" parent="1" vertex="1">
                    <mxGeometry x="1100" y="-660" width="360" height="160" as="geometry"/>
                </mxCell>
                <mxCell id="65" value="Streamr Light Client" style="rounded=1;whiteSpace=wrap;html=1;" parent="81" vertex="1">
                    <mxGeometry x="60" y="20" width="120" height="30" as="geometry"/>
                </mxCell>
                <mxCell id="90" style="edgeStyle=none;html=1;" parent="81" source="88" target="65" edge="1">
                    <mxGeometry relative="1" as="geometry"/>
                </mxCell>
                <mxCell id="95" style="edgeStyle=none;html=1;" parent="81" source="88" target="94" edge="1">
                    <mxGeometry relative="1" as="geometry"/>
                </mxCell>
                <mxCell id="88" value="Exposed Streamr and GraphQL API" style="rounded=1;whiteSpace=wrap;html=1;" parent="81" vertex="1">
                    <mxGeometry x="60" y="110" width="260" height="30" as="geometry"/>
                </mxCell>
                <mxCell id="94" value="GraphQL Client" style="rounded=1;whiteSpace=wrap;html=1;" parent="81" vertex="1">
                    <mxGeometry x="200" y="60" width="120" height="30" as="geometry"/>
                </mxCell>
                <mxCell id="54" value="&lt;font color=&quot;#ffff66&quot;&gt;predictions&lt;/font&gt;" style="edgeStyle=none;html=1;startArrow=none;startFill=0;endArrow=classic;endFill=1;exitX=0.75;exitY=0;exitDx=0;exitDy=0;entryX=0.5;entryY=1;entryDx=0;entryDy=0;strokeColor=#FFFF66;" parent="1" source="3" target="88" edge="1">
                    <mxGeometry x="0.0623" relative="1" as="geometry">
                        <mxPoint x="1" as="offset"/>
                        <mxPoint x="853.4000000000001" y="-801.08" as="targetPoint"/>
                    </mxGeometry>
                </mxCell>
                <mxCell id="47" value="Streamr" style="ellipse;shape=cloud;whiteSpace=wrap;html=1;" parent="1" vertex="1">
                    <mxGeometry x="1580" y="-665" width="120" height="80" as="geometry"/>
                </mxCell>
                <mxCell id="53" value="&lt;font color=&quot;#9999ff&quot;&gt;history requests&lt;/font&gt;" style="edgeStyle=none;html=1;exitX=0.25;exitY=0;exitDx=0;exitDy=0;startArrow=none;startFill=0;endArrow=classic;endFill=1;entryX=0.75;entryY=1;entryDx=0;entryDy=0;strokeColor=#9999FF;" parent="1" source="4" target="88" edge="1">
                    <mxGeometry x="0.44" y="6" relative="1" as="geometry">
                        <mxPoint as="offset"/>
                        <mxPoint x="910" y="-800" as="targetPoint"/>
                    </mxGeometry>
                </mxCell>
                <mxCell id="64" style="edgeStyle=none;html=1;startArrow=classic;startFill=1;endArrow=classic;endFill=1;exitX=1;exitY=0.5;exitDx=0;exitDy=0;" parent="1" source="65" target="47" edge="1">
                    <mxGeometry relative="1" as="geometry"/>
                </mxCell>
                <mxCell id="52" value="&lt;font color=&quot;#9999ff&quot;&gt;histories&lt;/font&gt;" style="edgeStyle=none;html=1;entryX=0.75;entryY=0;entryDx=0;entryDy=0;startArrow=none;startFill=0;endArrow=classic;endFill=1;strokeColor=#9999FF;exitX=1;exitY=1;exitDx=0;exitDy=0;" parent="1" source="88" target="4" edge="1">
                    <mxGeometry x="-0.0622" y="-1" relative="1" as="geometry">
                        <mxPoint as="offset"/>
                        <mxPoint x="960" y="-800" as="sourcePoint"/>
                    </mxGeometry>
                </mxCell>
                <mxCell id="96" style="edgeStyle=none;html=1;startArrow=classic;startFill=1;" parent="1" source="94" target="97" edge="1">
                    <mxGeometry relative="1" as="geometry">
                        <mxPoint x="1449.0182905197144" y="-1019.4555435180664" as="targetPoint"/>
                    </mxGeometry>
                </mxCell>
                <mxCell id="33" value="&lt;font color=&quot;#ffff66&quot;&gt;publish stream&lt;/font&gt;" style="edgeStyle=none;html=1;endArrow=classic;endFill=1;startArrow=none;startFill=0;exitX=0.25;exitY=0;exitDx=0;exitDy=0;entryX=0.25;entryY=1;entryDx=0;entryDy=0;strokeColor=#FFFF66;" parent="1" source="3" target="88" edge="1">
                    <mxGeometry x="0.3988" y="9" relative="1" as="geometry">
                        <mxPoint as="offset"/>
                        <mxPoint x="810" y="-800" as="targetPoint"/>
                    </mxGeometry>
                </mxCell>
                <mxCell id="97" value="GraphQL" style="ellipse;shape=cloud;whiteSpace=wrap;html=1;" parent="1" vertex="1">
                    <mxGeometry x="1720" y="-625" width="120" height="80" as="geometry"/>
                </mxCell>
                <mxCell id="55" value="&lt;font color=&quot;#ccffcc&quot;&gt;subscribe to&lt;/font&gt;" style="edgeStyle=none;html=1;exitX=0.75;exitY=0;exitDx=0;exitDy=0;startArrow=none;startFill=0;endArrow=classic;endFill=1;entryX=0;entryY=1;entryDx=0;entryDy=0;strokeColor=#CCFFCC;" parent="1" source="2" target="88" edge="1">
                    <mxGeometry x="0.0312" y="4" relative="1" as="geometry">
                        <mxPoint as="offset"/>
                        <mxPoint x="760" y="-800" as="targetPoint"/>
                    </mxGeometry>
                </mxCell>
            </root>
        </mxGraphModel>
    </diagram>
</mxfile>